<svg fill="none" height="24" viewBox="0 0 24 24" width="24" xmlns="http://www.w3.org/2000/svg"><g fill="#fff"><path d="m2.83179 3.5366c-.46944 0-.85.38055-.85.85 0 .46944.38056.85.85.85zm7.82821 1.81726c-.4695 0-.85001.38056-.85001.85s.38051.85.85001.85zm8.2934 10.45774.8.2872zm-16.12161-10.575h.51162v-1.7h-.51162zm1.56972.78148 3.06394 9.95782 1.62482-.5-3.06394-9.95777zm5.74689 11.93932h6.963v-1.7h-6.963zm9.605-1.8586 2.0391-5.6804-1.6001-.57432-2.0391 5.68032zm-1.5239-10.74494h-7.5695v1.7h7.5695zm3.563 5.06454c.8853-2.4663-.9425-5.06454-3.563-5.06454v1.7c1.4437 0 2.4507 1.43144 1.9629 2.79022zm-4.6811 7.539c1.1846 0 2.2417-.7437 2.642-1.8586l-1.6001-.5744c-.1578.4397-.5747.733-1.0419.733zm-9.64595-1.9815c.3624 1.1778 1.45061 1.9815 2.68295 1.9815v-1.7c-.48603 0-.9152-.3169-1.05813-.7815zm-4.12204-10.7393c.486 0 .91517.31697 1.0581.78148l1.62482-.49995c-.3624-1.17781-1.45061-1.98153-2.68292-1.98153z"/><circle cx="10.1707" cy="20.5322" r="1.46779"/><circle cx="17.0204" cy="20.5322" r="1.46779"/></g></svg>